# xmcd
# 
# Track frame offsets:
#     150
#     17517
#     42301
#     60816
#     81766
#     111188
#     130839
#     151597
#     178791
# 
# Disc length: 2623
# 
# Revision: 0
# Processed by: cddbd v1.5.2PL0 Copyright (c) Steve Scherf et al.
# Submitted via: BonkEnc v1.0
# 
DISCID=600a3d09
DTITLE=ハナレグミ - 音タイム
DYEAR=2002
DGENRE=J-POP
TTITLE0=音タイム
TTITLE1=雪の中に
TTITLE2=明日天気になれ
TTITLE3=家族の風景
TTITLE4=Jamaica Song
TTITLE5=Wake Upしてください
TTITLE6=かこめ　かこめ
TTITLE7=ナタリー
TTITLE8=一日の終わりに
EXTD=YEAR: 2002
EXTT0=
EXTT1=
EXTT2=
EXTT3=
EXTT4=
EXTT5=
EXTT6=
EXTT7=
EXTT8=
PLAYORDER=
